<svg xmlns="http://www.w3.org/2000/svg" xmlns:xlink="http://www.w3.org/1999/xlink" viewBox="0 0 600 400">
  <defs>
    <style>
      .cls-1 {
        clip-path: url(#clip-Artboard_1_copy);
      }

      .cls-2 {
        fill: #8b0304;
      }

      .cls-3 {
        fill: #808184;
      }

      .cls-4 {
        fill: #fff;
      }
    </style>
    <clipPath id="clip-Artboard_1_copy">
      <rect width="600" height="400"/>
    </clipPath>
  </defs>
  <g id="Artboard_1_copy" data-name="Artboard 1 copy" class="cls-1">
    <rect class="cls-4" width="600" height="400"/>
    <g id="Group_4" data-name="Group 4">
      <g id="Group_1" data-name="Group 1">
        <path id="Path_1" data-name="Path 1" class="cls-2" d="M53.749,249.771V222.118h6.435v22.446H80.93v5.207Z"/>
        <path id="Path_2" data-name="Path 2" class="cls-2" d="M84.122,249.771l15.644-27.653h6.2l15.855,27.653H114.6l-3.322-6.044H93.748l-3.217,6.044ZM96.5,238.73h12.112l-5.965-11.249Z"/>
        <path id="Path_3" data-name="Path 3" class="cls-2" d="M135.215,249.771l-10.647-27.653h6.645l7.01,18.549,7.352-18.549h4.5l7.482,18.549,6.7-18.549h5.756l-10.673,27.653h-4.344l-7.613-19.125-7.717,19.125Z"/>
        <path id="Path_4" data-name="Path 4" class="cls-2" d="M225.835,227.063H205.744v17.5h20.091v-6.147H215.319v-4.709h16.769v9.522q0,3.795-1.411,5.167t-5.443,1.374H206.163q-4.029,0-5.441-1.374t-1.413-5.167V228.658q0-3.765,1.413-5.153t5.441-1.387h19.071q3.977,0,5.415,1.361t1.439,4.919v.627l-6.253,1.125Z"/>
        <path id="Path_5" data-name="Path 5" class="cls-2" d="M245.694,249.771V222.118h23.648q3.3,0,4.775,1.269a5.126,5.126,0,0,1,1.478,4.094v6.489a5.128,5.128,0,0,1-1.478,4.08q-1.479,1.282-4.775,1.283h-3.609L278.5,249.771h-9.235l-11.146-10.438h-6.095v10.438Zm20.8-22.865H252.024V234.6h14.467a3.882,3.882,0,0,0,2.289-.483,2.068,2.068,0,0,0,.616-1.714v-3.323a2.033,2.033,0,0,0-.616-1.688A3.889,3.889,0,0,0,266.491,226.906Z"/>
        <path id="Path_6" data-name="Path 6" class="cls-2" d="M288.074,228.658q0-3.765,1.413-5.153t5.441-1.387h20.353q4.029,0,5.442,1.387t1.413,5.153V243.23q0,3.795-1.413,5.167t-5.442,1.374H294.928q-4.031,0-5.441-1.374t-1.413-5.167Zm6.435,15.906h21.216v-17.5H294.509Z"/>
        <path id="Path_7" data-name="Path 7" class="cls-2" d="M342.122,222.118v22.446h18.339V222.118h6.409V243.23q0,3.795-1.413,5.167t-5.441,1.374H342.54q-4,0-5.428-1.374t-1.425-5.167V222.118Z"/>
        <path id="Path_8" data-name="Path 8" class="cls-2" d="M381.024,249.771V222.118h23.648q3.3,0,4.775,1.269a5.126,5.126,0,0,1,1.478,4.094v6.175a5.086,5.086,0,0,1-1.478,4.067q-1.479,1.271-4.775,1.269H387.354v10.779Zm20.8-22.865H387.354v7.326h14.467a3.879,3.879,0,0,0,2.289-.485,2.066,2.066,0,0,0,.616-1.714v-2.956a2.033,2.033,0,0,0-.616-1.688A3.889,3.889,0,0,0,401.821,226.906Z"/>
        <path id="Path_9" data-name="Path 9" class="cls-2" d="M441.586,249.771V222.118h23.649q3.3,0,4.775,1.269a5.129,5.129,0,0,1,1.477,4.094v6.175a5.089,5.089,0,0,1-1.477,4.067q-1.479,1.271-4.775,1.269H447.916v10.779Zm20.8-22.865H447.916v7.326h14.467a3.879,3.879,0,0,0,2.289-.485,2.063,2.063,0,0,0,.616-1.714v-2.956a2.03,2.03,0,0,0-.616-1.688A3.889,3.889,0,0,0,462.383,226.906Z"/>
        <path id="Path_10" data-name="Path 10" class="cls-2" d="M481.22,241.478h.968a1.137,1.137,0,0,1,.994.4,2.93,2.93,0,0,1,.288,1.557v4.343a2.754,2.754,0,0,1-.314,1.622q-.315.367-1.936.367h-4.788a1.117,1.117,0,0,1-.994-.419,2.975,2.975,0,0,1-.288-1.57v-4.343a2.7,2.7,0,0,1,.313-1.6q.316-.366,1.937-.365Z"/>
        <path id="Path_11" data-name="Path 11" class="cls-2" d="M518.447,227.063H501.1v17.5h17.345v-5.937l6.435,1.333v3.27q0,3.795-1.426,5.167t-5.428,1.374H501.521q-4.03,0-5.441-1.374t-1.413-5.167V228.658q0-3.765,1.413-5.153t5.441-1.387h16.507q4,0,5.428,1.387t1.426,5.153v2.617l-6.435,1.02Z"/>
        <path id="Path_12" data-name="Path 12" class="cls-2" d="M541.861,241.478h.968a1.139,1.139,0,0,1,.995.4,2.941,2.941,0,0,1,.287,1.557v4.343a2.763,2.763,0,0,1-.313,1.622q-.315.367-1.937.367h-4.788a1.119,1.119,0,0,1-.994-.419,2.985,2.985,0,0,1-.288-1.57v-4.343a2.694,2.694,0,0,1,.314-1.6q.315-.366,1.936-.365Z"/>
      </g>
      <g id="Group_2" data-name="Group 2">
        <path id="Path_13" data-name="Path 13" class="cls-3" d="M61.028,273.28H54.795v5.782h6.947V280.8H52.726V264.763h8.659V266.5h-6.59v5.068h6.233Z"/>
        <path id="Path_14" data-name="Path 14" class="cls-3" d="M68.185,269.283l1.643,2.475c.426.641.784,1.236,1.165,1.88h.071c.38-.691.762-1.286,1.142-1.9l1.618-2.45h2.261l-3.926,5.567L76.2,280.8H73.824l-1.69-2.592c-.451-.666-.832-1.31-1.236-2h-.049c-.38.69-.784,1.309-1.212,2L67.97,280.8H65.664l4.091-5.877-3.9-5.638Z"/>
        <path id="Path_15" data-name="Path 15" class="cls-3" d="M88.926,280.37a7.694,7.694,0,0,1-3.305.666c-3.474,0-5.736-2.355-5.736-5.876a5.852,5.852,0,0,1,6.187-6.115,6.989,6.989,0,0,1,2.9.6l-.476,1.618a4.854,4.854,0,0,0-2.427-.548c-2.642,0-4.069,1.951-4.069,4.355,0,2.664,1.713,4.306,4,4.306a5.967,5.967,0,0,0,2.571-.57Z"/>
        <path id="Path_16" data-name="Path 16" class="cls-3" d="M95.253,275.422a3.688,3.688,0,0,0,3.949,4,7.57,7.57,0,0,0,3.188-.6l.357,1.5a9.328,9.328,0,0,1-3.831.713c-3.545,0-5.663-2.331-5.663-5.805s2.047-6.21,5.4-6.21c3.76,0,4.759,3.307,4.759,5.425a7.9,7.9,0,0,1-.071.976Zm6.138-1.5c.024-1.332-.547-3.4-2.9-3.4-2.118,0-3.046,1.951-3.212,3.4Z"/>
        <path id="Path_17" data-name="Path 17" class="cls-3" d="M108.857,263.906h2.1V280.8h-2.1Z"/>
        <path id="Path_18" data-name="Path 18" class="cls-3" d="M117.324,263.906h2.1V280.8h-2.1Z"/>
        <path id="Path_19" data-name="Path 19" class="cls-3" d="M126.957,275.422a3.688,3.688,0,0,0,3.949,4,7.565,7.565,0,0,0,3.187-.6l.358,1.5a9.331,9.331,0,0,1-3.831.713c-3.545,0-5.663-2.331-5.663-5.805s2.047-6.21,5.4-6.21c3.76,0,4.759,3.307,4.759,5.425a7.664,7.664,0,0,1-.072.976Zm6.137-1.5c.025-1.332-.546-3.4-2.9-3.4-2.117,0-3.045,1.951-3.212,3.4Z"/>
        <path id="Path_20" data-name="Path 20" class="cls-3" d="M140.561,272.4c0-1.189-.023-2.164-.094-3.116h1.856l.118,1.9h.048a4.236,4.236,0,0,1,3.807-2.166c1.594,0,4.069.952,4.069,4.9V280.8h-2.1V274.16c0-1.856-.689-3.4-2.664-3.4a2.973,2.973,0,0,0-2.808,2.14,3.02,3.02,0,0,0-.142.976V280.8h-2.1Z"/>
        <path id="Path_21" data-name="Path 21" class="cls-3" d="M164.824,280.37a7.7,7.7,0,0,1-3.306.666c-3.474,0-5.735-2.355-5.735-5.876a5.852,5.852,0,0,1,6.186-6.115,6.985,6.985,0,0,1,2.9.6l-.477,1.618a4.84,4.84,0,0,0-2.426-.548c-2.641,0-4.069,1.951-4.069,4.355,0,2.664,1.714,4.306,4,4.306a5.962,5.962,0,0,0,2.57-.57Z"/>
        <path id="Path_22" data-name="Path 22" class="cls-3" d="M171.151,275.422a3.687,3.687,0,0,0,3.949,4,7.565,7.565,0,0,0,3.187-.6l.358,1.5a9.333,9.333,0,0,1-3.832.713c-3.544,0-5.662-2.331-5.662-5.805s2.046-6.21,5.4-6.21c3.76,0,4.758,3.307,4.758,5.425a7.7,7.7,0,0,1-.071.976Zm6.137-1.5c.025-1.332-.546-3.4-2.9-3.4-2.117,0-3.045,1.951-3.212,3.4Z"/>
        <path id="Path_23" data-name="Path 23" class="cls-3" d="M183.111,283.724a34.187,34.187,0,0,0,1.429-5.685l2.331-.239a28.988,28.988,0,0,1-2.26,5.782Z"/>
        <path id="Path_24" data-name="Path 24" class="cls-3" d="M200.215,264.977a29.542,29.542,0,0,1,4.4-.333c2.973,0,5.09.69,6.495,2a7.389,7.389,0,0,1,2.26,5.757,8.482,8.482,0,0,1-2.308,6.235c-1.5,1.5-3.974,2.307-7.09,2.307a33.647,33.647,0,0,1-3.758-.189Zm2.069,14.179a12.953,12.953,0,0,0,2.093.12c4.426,0,6.829-2.475,6.829-6.806.023-3.782-2.117-6.184-6.5-6.184a11.777,11.777,0,0,0-2.426.213Z"/>
        <path id="Path_25" data-name="Path 25" class="cls-3" d="M220.1,275.422a3.687,3.687,0,0,0,3.949,4,7.565,7.565,0,0,0,3.187-.6l.357,1.5a9.324,9.324,0,0,1-3.831.713c-3.544,0-5.662-2.331-5.662-5.805s2.046-6.21,5.4-6.21c3.759,0,4.758,3.307,4.758,5.425a7.7,7.7,0,0,1-.071.976Zm6.137-1.5c.025-1.332-.546-3.4-2.9-3.4-2.117,0-3.045,1.951-3.212,3.4Z"/>
        <path id="Path_26" data-name="Path 26" class="cls-3" d="M243.649,263.906v13.918c0,1.023.024,2.189.1,2.974h-1.88l-.1-2h-.047a4.262,4.262,0,0,1-3.926,2.259c-2.784,0-4.926-2.355-4.926-5.853-.022-3.831,2.355-6.186,5.163-6.186a3.851,3.851,0,0,1,3.474,1.76h.048v-6.875Zm-2.094,10.065a3.715,3.715,0,0,0-.095-.881,3.08,3.08,0,0,0-3.021-2.427c-2.166,0-3.451,1.9-3.451,4.449,0,2.332,1.143,4.259,3.4,4.259a3.148,3.148,0,0,0,3.07-2.5,3.647,3.647,0,0,0,.095-.9Z"/>
        <path id="Path_27" data-name="Path 27" class="cls-3" d="M252.3,266.047a1.3,1.3,0,0,1-2.593,0,1.275,1.275,0,0,1,1.308-1.308A1.243,1.243,0,0,1,252.3,266.047ZM249.972,280.8V269.283h2.1V280.8Z"/>
        <path id="Path_28" data-name="Path 28" class="cls-3" d="M266.6,280.37a7.7,7.7,0,0,1-3.306.666c-3.474,0-5.735-2.355-5.735-5.876a5.852,5.852,0,0,1,6.186-6.115,6.985,6.985,0,0,1,2.9.6l-.475,1.618a4.855,4.855,0,0,0-2.428-.548c-2.641,0-4.068,1.951-4.068,4.355,0,2.664,1.713,4.306,4,4.306a5.962,5.962,0,0,0,2.57-.57Z"/>
        <path id="Path_29" data-name="Path 29" class="cls-3" d="M278.278,280.8l-.166-1.451h-.071a4.292,4.292,0,0,1-3.521,1.713A3.281,3.281,0,0,1,271,277.753c0-2.783,2.474-4.306,6.923-4.282v-.239a2.374,2.374,0,0,0-2.617-2.664,5.729,5.729,0,0,0-3,.857l-.477-1.381a7.149,7.149,0,0,1,3.784-1.023c3.521,0,4.378,2.4,4.378,4.712v4.306a16.078,16.078,0,0,0,.19,2.759Zm-.309-5.877c-2.284-.047-4.878.357-4.878,2.594a1.852,1.852,0,0,0,1.975,2,2.866,2.866,0,0,0,2.784-1.926,2.2,2.2,0,0,0,.119-.666Z"/>
        <path id="Path_30" data-name="Path 30" class="cls-3" d="M288.648,265.976v3.307h3v1.594h-3v6.21c0,1.427.4,2.236,1.569,2.236a4.629,4.629,0,0,0,1.214-.143l.1,1.572a5.154,5.154,0,0,1-1.856.284,2.9,2.9,0,0,1-2.261-.879,4.269,4.269,0,0,1-.809-3v-6.281h-1.784v-1.594H286.6v-2.759Z"/>
        <path id="Path_31" data-name="Path 31" class="cls-3" d="M299.184,266.047a1.3,1.3,0,0,1-2.593,0,1.275,1.275,0,0,1,1.308-1.308A1.243,1.243,0,0,1,299.184,266.047ZM296.851,280.8V269.283h2.1V280.8Z"/>
        <path id="Path_32" data-name="Path 32" class="cls-3" d="M315.691,274.945c0,4.26-2.95,6.115-5.733,6.115-3.117,0-5.521-2.284-5.521-5.924,0-3.854,2.524-6.115,5.711-6.115C313.456,269.021,315.691,271.425,315.691,274.945Zm-9.136.12c0,2.522,1.451,4.424,3.5,4.424,2,0,3.5-1.878,3.5-4.473,0-1.951-.976-4.424-3.451-4.424S306.555,272.876,306.555,275.065Z"/>
        <path id="Path_33" data-name="Path 33" class="cls-3" d="M321.182,272.4c0-1.189-.022-2.164-.094-3.116h1.856l.118,1.9h.049a4.233,4.233,0,0,1,3.806-2.166c1.594,0,4.069.952,4.069,4.9V280.8h-2.1V274.16c0-1.856-.69-3.4-2.664-3.4a2.975,2.975,0,0,0-2.808,2.14,3.02,3.02,0,0,0-.142.976V280.8h-2.1Z"/>
        <path id="Path_34" data-name="Path 34" class="cls-3" d="M335.882,283.724a34.386,34.386,0,0,0,1.428-5.685l2.331-.239a28.989,28.989,0,0,1-2.26,5.782Z"/>
        <path id="Path_35" data-name="Path 35" class="cls-3" d="M359.287,280.8l-.167-1.451h-.071a4.293,4.293,0,0,1-3.52,1.713,3.282,3.282,0,0,1-3.523-3.307c0-2.783,2.475-4.306,6.924-4.282v-.239a2.374,2.374,0,0,0-2.617-2.664,5.729,5.729,0,0,0-3,.857l-.477-1.381a7.146,7.146,0,0,1,3.784-1.023c3.521,0,4.377,2.4,4.377,4.712v4.306a16.071,16.071,0,0,0,.191,2.759Zm-.309-5.877c-2.284-.047-4.878.357-4.878,2.594a1.852,1.852,0,0,0,1.975,2,2.866,2.866,0,0,0,2.784-1.926,2.2,2.2,0,0,0,.119-.666Z"/>
        <path id="Path_36" data-name="Path 36" class="cls-3" d="M367.229,272.4c0-1.189-.023-2.164-.094-3.116h1.856l.118,1.9h.048a4.236,4.236,0,0,1,3.807-2.166c1.594,0,4.068.952,4.068,4.9V280.8h-2.094V274.16c0-1.856-.691-3.4-2.664-3.4a3.066,3.066,0,0,0-2.95,3.116V280.8h-2.1Z"/>
        <path id="Path_37" data-name="Path 37" class="cls-3" d="M393.229,263.906v13.918c0,1.023.025,2.189.1,2.974h-1.88l-.1-2H391.3a4.265,4.265,0,0,1-3.927,2.259c-2.783,0-4.925-2.355-4.925-5.853-.023-3.831,2.355-6.186,5.163-6.186a3.852,3.852,0,0,1,3.474,1.76h.048v-6.875Zm-2.093,10.065a3.715,3.715,0,0,0-.1-.881,3.082,3.082,0,0,0-3.021-2.427c-2.167,0-3.452,1.9-3.452,4.449,0,2.332,1.143,4.259,3.4,4.259a3.15,3.15,0,0,0,3.07-2.5,3.646,3.646,0,0,0,.1-.9Z"/>
        <path id="Path_38" data-name="Path 38" class="cls-3" d="M407.52,264.952a24.067,24.067,0,0,1,3.974-.308,6.589,6.589,0,0,1,4.5,1.332,4.313,4.313,0,0,1,1.4,3.355,4.727,4.727,0,0,1-1.237,3.426,6.651,6.651,0,0,1-4.9,1.76,7.126,7.126,0,0,1-1.665-.142V280.8h-2.07Zm2.07,7.733a6.889,6.889,0,0,0,1.713.167c2.5,0,4.02-1.214,4.02-3.427,0-2.118-1.5-3.139-3.782-3.139a8.707,8.707,0,0,0-1.951.166Z"/>
        <path id="Path_39" data-name="Path 39" class="cls-3" d="M423.53,275.422a3.688,3.688,0,0,0,3.949,4,7.57,7.57,0,0,0,3.188-.6l.357,1.5a9.327,9.327,0,0,1-3.831.713c-3.545,0-5.663-2.331-5.663-5.805s2.047-6.21,5.4-6.21c3.76,0,4.759,3.307,4.759,5.425a7.9,7.9,0,0,1-.071.976Zm6.138-1.5c.024-1.332-.547-3.4-2.9-3.4-2.117,0-3.045,1.951-3.211,3.4Z"/>
        <path id="Path_40" data-name="Path 40" class="cls-3" d="M437.134,272.876c0-1.356-.023-2.523-.094-3.593h1.832l.071,2.26h.1a3.457,3.457,0,0,1,3.188-2.522,2.3,2.3,0,0,1,.6.071v1.975a3.243,3.243,0,0,0-.713-.071,2.937,2.937,0,0,0-2.808,2.688,5.887,5.887,0,0,0-.1.977V280.8h-2.071Z"/>
        <path id="Path_41" data-name="Path 41" class="cls-3" d="M447.481,278.657a5.482,5.482,0,0,0,2.759.832c1.523,0,2.237-.761,2.237-1.712,0-1-.594-1.547-2.141-2.117-2.069-.739-3.046-1.88-3.046-3.261,0-1.855,1.5-3.378,3.973-3.378a5.756,5.756,0,0,1,2.833.714l-.524,1.523a4.48,4.48,0,0,0-2.355-.666c-1.239,0-1.929.713-1.929,1.57,0,.952.69,1.38,2.19,1.951,2,.761,3.022,1.76,3.022,3.474,0,2.022-1.572,3.449-4.307,3.449a6.556,6.556,0,0,1-3.236-.786Z"/>
        <path id="Path_42" data-name="Path 42" class="cls-3" d="M462.372,266.047a1.3,1.3,0,0,1-2.593,0,1.275,1.275,0,0,1,1.308-1.308A1.243,1.243,0,0,1,462.372,266.047ZM460.039,280.8V269.283h2.1V280.8Z"/>
        <path id="Path_43" data-name="Path 43" class="cls-3" d="M468.175,278.657a5.482,5.482,0,0,0,2.759.832c1.523,0,2.237-.761,2.237-1.712,0-1-.6-1.547-2.141-2.117-2.07-.739-3.046-1.88-3.046-3.261,0-1.855,1.5-3.378,3.973-3.378a5.749,5.749,0,0,1,2.832.714l-.523,1.523a4.48,4.48,0,0,0-2.355-.666c-1.239,0-1.929.713-1.929,1.57,0,.952.69,1.38,2.19,1.951,2,.761,3.022,1.76,3.022,3.474,0,2.022-1.572,3.449-4.307,3.449a6.553,6.553,0,0,1-3.236-.786Z"/>
        <path id="Path_44" data-name="Path 44" class="cls-3" d="M483.256,265.976v3.307h3v1.594h-3v6.21c0,1.427.4,2.236,1.57,2.236a4.63,4.63,0,0,0,1.214-.143l.1,1.572a5.144,5.144,0,0,1-1.855.284,2.907,2.907,0,0,1-2.262-.879,4.27,4.27,0,0,1-.808-3v-6.281h-1.785v-1.594h1.785v-2.759Z"/>
        <path id="Path_45" data-name="Path 45" class="cls-3" d="M492.482,275.422a3.687,3.687,0,0,0,3.949,4,7.565,7.565,0,0,0,3.187-.6l.357,1.5a9.324,9.324,0,0,1-3.831.713c-3.544,0-5.662-2.331-5.662-5.805s2.046-6.21,5.4-6.21c3.759,0,4.758,3.307,4.758,5.425a7.707,7.707,0,0,1-.071.976Zm6.137-1.5c.025-1.332-.546-3.4-2.9-3.4-2.117,0-3.045,1.951-3.212,3.4Z"/>
        <path id="Path_46" data-name="Path 46" class="cls-3" d="M506.086,272.4c0-1.189-.023-2.164-.094-3.116h1.856l.118,1.9h.048a4.236,4.236,0,0,1,3.807-2.166c1.594,0,4.068.952,4.068,4.9V280.8h-2.094V274.16c0-1.856-.691-3.4-2.664-3.4a3.066,3.066,0,0,0-2.95,3.116V280.8h-2.1Z"/>
        <path id="Path_47" data-name="Path 47" class="cls-3" d="M530.349,280.37a7.7,7.7,0,0,1-3.306.666c-3.474,0-5.735-2.355-5.735-5.876a5.852,5.852,0,0,1,6.186-6.115,6.985,6.985,0,0,1,2.9.6l-.475,1.618a4.855,4.855,0,0,0-2.428-.548c-2.641,0-4.069,1.951-4.069,4.355,0,2.664,1.714,4.306,4,4.306a5.962,5.962,0,0,0,2.57-.57Z"/>
        <path id="Path_48" data-name="Path 48" class="cls-3" d="M536.676,275.422a3.687,3.687,0,0,0,3.949,4,7.565,7.565,0,0,0,3.187-.6l.357,1.5a9.327,9.327,0,0,1-3.831.713c-3.544,0-5.662-2.331-5.662-5.805s2.046-6.21,5.4-6.21c3.759,0,4.758,3.307,4.758,5.425a7.7,7.7,0,0,1-.071.976Zm6.137-1.5c.024-1.332-.546-3.4-2.9-3.4-2.117,0-3.045,1.951-3.212,3.4Z"/>
      </g>
      <g id="Group_3" data-name="Group 3">
        <path id="Path_49" data-name="Path 49" class="cls-3" d="M120.987,168.452c0,10.172,0,18.906-.552,23.552-.332,3.206-.995,5.637-3.207,6.079a18.012,18.012,0,0,1-3.98.444c-1.326,0-1.768.332-1.768.884,0,.774.774,1.105,2.21,1.105,4.422,0,11.388-.331,13.932-.331,3.1,0,10.062.331,17.359.331,1.215,0,2.1-.331,2.1-1.105,0-.552-.555-.884-1.771-.884a46.583,46.583,0,0,1-5.637-.444c-3.317-.442-3.982-2.873-4.314-5.969-.552-4.756-.552-13.49-.552-23.662V140.974q-7.438,1.458-13.822,3.259Z"/>
        <path id="Path_50" data-name="Path 50" class="cls-3" d="M178.915,136.277c0,8.955,4.2,16.7,16.365,26.2l5.087,3.98c9.176,7.189,10.836,12.274,10.836,17.691,0,5.86-4.867,12.605-14.818,12.605-6.856,0-13.377-2.985-15.81-11.167a23.339,23.339,0,0,1-.995-5.64c0-.884-.11-1.878-1.107-1.878-.884,0-1.216,1.215-1.326,2.875-.111,1.768-.552,8.4-.552,14.484,0,2.431.331,2.984,2.1,3.759,4.756,2.1,9.73,2.876,16.144,2.876,5.861,0,12.051-1,17.58-4.535a22.283,22.283,0,0,0,10.393-19.238c0-10.5-4.753-18.133-18.132-28.195l-3.1-2.322c-6.873-5.217-10.024-8.7-11.173-12.251q-5.9.156-11.478.438C178.93,136.069,178.915,136.171,178.915,136.277Z"/>
        <path id="Path_51" data-name="Path 51" class="cls-3" d="M249.117,148.993v19.459c0,10.172,0,18.906-.553,23.552-.442,3.206-.994,5.637-3.207,6.079a18.027,18.027,0,0,1-3.98.444c-1.326,0-1.77.332-1.77.884,0,.774.776,1.105,2.212,1.105,2.213,0,5.085-.221,7.629-.221,2.654-.11,5.087-.11,6.3-.11,3.317,0,6.745.11,11.5.331,4.756.111,10.836.332,19.13.332,4.2,0,5.2,0,5.969-2.875a86.34,86.34,0,0,0,1.439-12.272c0-1.105,0-1.991-.884-1.991-.776,0-1,.442-1.218,1.659-.774,4.533-2.1,6.856-4.975,8.182s-7.518,1.328-10.393,1.328c-11.278,0-13.048-1.66-13.269-9.289-.11-3.206,0-13.379,0-17.138v-8.734c0-.665.111-1.107.663-1.107,2.654,0,13.6.111,15.7.332,4.091.442,5.638,2.1,6.19,4.313a28.638,28.638,0,0,1,.444,3.981.876.876,0,0,0,.995.994c.994,0,.994-1.215.994-2.1,0-.773.332-5.195.442-7.407.442-5.638.884-7.408.884-8.071s-.331-.884-.773-.884c-.553,0-.995.552-1.768,1.436-1,1.1-2.654,1.439-5.309,1.66-2.541.221-15.257.221-17.69.221-.663,0-.774-.442-.774-1.218V137.872q-7.013-.577-13.938-1.028C249.117,139.847,249.117,143.753,249.117,148.993Z"/>
        <path id="Path_52" data-name="Path 52" class="cls-3" d="M306.936,158.722c0,30.517,23.991,43.344,51.081,43.344,8.625,0,19.461-1.218,26.648-4.977,1.326-.774,1.436-1,1.436-3.98V180.947c0-5.529,0-9.951.111-13.268.11-3.87,1.215-5.751,4.2-6.3a17.422,17.422,0,0,1,2.985-.332c.774,0,1.439-.221,1.439-.884,0-.886-.776-1.107-2.212-1.107-3.649,0-9.51.332-12.937.332-3.317,0-10.283-.332-16.031-.332-1.549,0-2.323.221-2.323,1.107,0,.663.663.884,1.66.884a22.738,22.738,0,0,1,4.311.332c3.649.773,4.644,2.543,4.754,6.3.111,3.317.111,7.518.111,13.047v10.391c0,1.881-.442,3.318-2.1,4.093-2.654,1.216-6.524,1.216-9.4,1.216-23.33,0-38.478-17.8-38.478-41.574a53.711,53.711,0,0,1,.878-9.962q-6.713-1-13.413-1.918A45.486,45.486,0,0,0,306.936,158.722Z"/>
        <path id="Path_53" data-name="Path 53" class="cls-3" d="M431.644,168.452c0,10.172,0,18.906-.552,23.552-.332,3.206-1,5.637-3.207,6.079a18.027,18.027,0,0,1-3.98.444c-1.326,0-1.768.332-1.768.884,0,.774.773,1.105,2.21,1.105,4.422,0,11.388-.331,13.931-.331,3.1,0,10.062.331,17.36.331,1.215,0,2.1-.331,2.1-1.105,0-.552-.552-.884-1.77-.884a46.6,46.6,0,0,1-5.638-.444c-3.317-.442-3.982-2.873-4.313-5.969-.5-4.325-.548-11.956-.552-20.951q-6.84-1.947-13.822-3.81Z"/>
        <path id="Path_54" data-name="Path 54" class="cls-3" d="M515.244,194.809a16.836,16.836,0,0,1-8.2,1.948c-6.82,0-13.3-2.964-15.765-11.052-1.212-.43-2.457-.848-3.68-1.275-.161,2.93-.345,7.071-.345,11,0,2.431.332,2.984,2.1,3.759,4.755,2.1,9.73,2.876,16.143,2.876,5.679,0,11.662-.958,17.058-4.234Q518.954,196.308,515.244,194.809Z"/>
        <path id="Path_55" data-name="Path 55" class="cls-2" d="M103.069,204.554c-62.673-42.939-24.4-76.632,91.22-76.524,114.267.108,263.259,33.2,344.842,75.439.966.5,1.97,1,2.917,1.5-3.272-2.241-6.739-4.5-10.564-6.789-1.71-1.023-3.512-2.036-5.3-3.051a22.281,22.281,0,0,0,7.287-16.834c0-10.5-4.754-18.133-18.133-28.195l-3.1-2.322c-9.178-6.966-11.719-10.836-11.719-15.921,0-6.634,4.974-11.39,13.156-11.39,7.186,0,10.393,3.317,12.053,5.419a13.406,13.406,0,0,1,2.875,7.3c0,1.326.331,1.991,1.1,1.991.884,0,1.215-.886,1.215-3.317,0-8.625.442-11.832.442-13.269,0-.773-.552-1.1-1.547-1.326a53.465,53.465,0,0,0-14.7-1.88c-15.37,0-25.542,8.736-25.542,20.9,0,8.955,4.2,16.7,16.364,26.2l5.088,3.98c9.175,7.189,10.835,12.274,10.835,17.691a11.911,11.911,0,0,1-2.552,7.214c-20.636-10.951-45.82-21.306-73.842-30.665V123.119l13.932.332c9.841.221,12.826,3.317,13.047,6.192l.111,1.215c.11,1.66.331,2.213,1.215,2.213.663,0,.884-.663,1-1.768,0-2.876.334-10.5.334-12.827,0-1.66-.111-2.323-.887-2.323a26.52,26.52,0,0,0-2.985.553,52.948,52.948,0,0,1-7.629.554H419.814c-3.649,0-7.85-.221-11.056-.554-2.765-.221-3.87-1.326-4.756-1.326-.663,0-1,.663-1.326,2.1-.221.884-2.323,10.946-2.323,12.714,0,1.218.223,1.771,1,1.771.663,0,.994-.442,1.215-1.329a13.081,13.081,0,0,1,1.881-3.869c1.658-2.431,4.312-2.986,10.725-3.207l16.473-.442v33.118a936.742,936.742,0,0,0-102.3-25.4,25.213,25.213,0,0,1,3.018-3.073c7.739-6.413,15.81-6.855,21.892-6.855,12.495,0,21.339,5.085,24.656,8.623,2.875,3.1,3.428,6.635,3.759,9.178.111.884.332,1.437,1.105,1.437.887,0,1.218-.553,1.218-2.323a149.163,149.163,0,0,1,.774-18.133c0-.773-.221-1.215-1.547-1.326a72.2,72.2,0,0,1-8.736-1.215,132.782,132.782,0,0,0-19.57-1.77c-9.288,0-19.129.773-29.743,7.187a37.954,37.954,0,0,0-7.729,6.239q-14.067-2.53-28.192-4.645c.333-5.028.879-6.352.879-7.122,0-.554-.11-1-.663-1a10.344,10.344,0,0,0-1.77.442,44.47,44.47,0,0,1-4.753.665c-2.1.11-24.1.11-27.643.11-1.547,0-4.09-.11-6.965-.221-2.765,0-5.969-.112-8.955-.112-1.53,0-2.276.21-2.388.846q-13.843-1.287-27.375-2.089c-1.417-.142-2.982-.239-4.7-.276-11.709-.616-23.187-.946-34.328-.957-120.7-.114-157.175,36.606-82.426,82.232.59.36,1.166.719,1.77,1.08C94.758,200.052,98.846,202.312,103.069,204.554Z"/>
      </g>
    </g>
  </g>
</svg>
